<svg class="marks" width="708" height="447" viewBox="0 0 708 447" version="1.1" xmlns="http://www.w3.org/2000/svg" xmlns:xlink="http://www.w3.org/1999/xlink"><g transform="translate(39,10)"><g class="mark-group role-frame root"><g transform="translate(0,0)"><path class="background" d="M0.5,0.5h600v400h-600Z" style="fill: none; stroke: #ddd;"></path><g><g class="mark-group role-axis"><g transform="translate(0.5,400.5)"><path class="background" d="M0,0h0v0h0Z" style="pointer-events: none; fill: none;"></path><g><g class="mark-rule role-axis-grid" style="pointer-events: none;"><line transform="translate(15,-400)" x2="0" y2="400" style="fill: none; stroke: #ddd; stroke-width: 1; opacity: 1;"></line><line transform="translate(46,-400)" x2="0" y2="400" style="fill: none; stroke: #ddd; stroke-width: 1; opacity: 1;"></line><line transform="translate(77,-400)" x2="0" y2="400" style="fill: none; stroke: #ddd; stroke-width: 1; opacity: 1;"></line><line transform="translate(108,-400)" x2="0" y2="400" style="fill: none; stroke: #ddd; stroke-width: 1; opacity: 1;"></line><line transform="translate(138,-400)" x2="0" y2="400" style="fill: none; stroke: #ddd; stroke-width: 1; opacity: 1;"></line><line transform="translate(169,-400)" x2="0" y2="400" style="fill: none; stroke: #ddd; stroke-width: 1; opacity: 1;"></line><line transform="translate(200,-400)" x2="0" y2="400" style="fill: none; stroke: #ddd; stroke-width: 1; opacity: 1;"></line><line transform="translate(231,-400)" x2="0" y2="400" style="fill: none; stroke: #ddd; stroke-width: 1; opacity: 1;"></line><line transform="translate(262,-400)" x2="0" y2="400" style="fill: none; stroke: #ddd; stroke-width: 1; opacity: 1;"></line><line transform="translate(292,-400)" x2="0" y2="400" style="fill: none; stroke: #ddd; stroke-width: 1; opacity: 1;"></line><line transform="translate(323,-400)" x2="0" y2="400" style="fill: none; stroke: #ddd; stroke-width: 1; opacity: 1;"></line><line transform="translate(354,-400)" x2="0" y2="400" style="fill: none; stroke: #ddd; stroke-width: 1; opacity: 1;"></line><line transform="translate(369,-400)" x2="0" y2="400" style="fill: none; stroke: #ddd; stroke-width: 1; opacity: 1;"></line><line transform="translate(400,-400)" x2="0" y2="400" style="fill: none; stroke: #ddd; stroke-width: 1; opacity: 1;"></line><line transform="translate(431,-400)" x2="0" y2="400" style="fill: none; stroke: #ddd; stroke-width: 1; opacity: 1;"></line><line transform="translate(462,-400)" x2="0" y2="400" style="fill: none; stroke: #ddd; stroke-width: 1; opacity: 1;"></line><line transform="translate(492,-400)" x2="0" y2="400" style="fill: none; stroke: #ddd; stroke-width: 1; opacity: 1;"></line><line transform="translate(523,-400)" x2="0" y2="400" style="fill: none; stroke: #ddd; stroke-width: 1; opacity: 1;"></line><line transform="translate(554,-400)" x2="0" y2="400" style="fill: none; stroke: #ddd; stroke-width: 1; opacity: 1;"></line><line transform="translate(585,-400)" x2="0" y2="400" style="fill: none; stroke: #ddd; stroke-width: 1; opacity: 1;"></line></g></g></g></g><g class="mark-group role-axis"><g transform="translate(0.5,0.5)"><path class="background" d="M0,0h0v0h0Z" style="pointer-events: none; fill: none;"></path><g><g class="mark-rule role-axis-grid" style="pointer-events: none;"><line transform="translate(0,400)" x2="600" y2="0" style="fill: none; stroke: #ddd; stroke-width: 1; opacity: 1;"></line><line transform="translate(0,367)" x2="600" y2="0" style="fill: none; stroke: #ddd; stroke-width: 1; opacity: 1;"></line><line transform="translate(0,333)" x2="600" y2="0" style="fill: none; stroke: #ddd; stroke-width: 1; opacity: 1;"></line><line transform="translate(0,300)" x2="600" y2="0" style="fill: none; stroke: #ddd; stroke-width: 1; opacity: 1;"></line><line transform="translate(0,267)" x2="600" y2="0" style="fill: none; stroke: #ddd; stroke-width: 1; opacity: 1;"></line><line transform="translate(0,233)" x2="600" y2="0" style="fill: none; stroke: #ddd; stroke-width: 1; opacity: 1;"></line><line transform="translate(0,200)" x2="600" y2="0" style="fill: none; stroke: #ddd; stroke-width: 1; opacity: 1;"></line><line transform="translate(0,167)" x2="600" y2="0" style="fill: none; stroke: #ddd; stroke-width: 1; opacity: 1;"></line><line transform="translate(0,133)" x2="600" y2="0" style="fill: none; stroke: #ddd; stroke-width: 1; opacity: 1;"></line><line transform="translate(0,100)" x2="600" y2="0" style="fill: none; stroke: #ddd; stroke-width: 1; opacity: 1;"></line><line transform="translate(0,67)" x2="600" y2="0" style="fill: none; stroke: #ddd; stroke-width: 1; opacity: 1;"></line><line transform="translate(0,33)" x2="600" y2="0" style="fill: none; stroke: #ddd; stroke-width: 1; opacity: 1;"></line><line transform="translate(0,0)" x2="600" y2="0" style="fill: none; stroke: #ddd; stroke-width: 1; opacity: 1;"></line></g></g></g></g><g class="mark-group role-axis"><g transform="translate(0.5,400.5)"><path class="background" d="M0,0h0v0h0Z" style="pointer-events: none; fill: none;"></path><g><g class="mark-rule role-axis-tick" style="pointer-events: none;"><line transform="translate(15,0)" x2="0" y2="5" style="fill: none; stroke: #888; stroke-width: 1; opacity: 1;"></line><line transform="translate(46,0)" x2="0" y2="5" style="fill: none; stroke: #888; stroke-width: 1; opacity: 1;"></line><line transform="translate(77,0)" x2="0" y2="5" style="fill: none; stroke: #888; stroke-width: 1; opacity: 1;"></line><line transform="translate(108,0)" x2="0" y2="5" style="fill: none; stroke: #888; stroke-width: 1; opacity: 1;"></line><line transform="translate(138,0)" x2="0" y2="5" style="fill: none; stroke: #888; stroke-width: 1; opacity: 1;"></line><line transform="translate(169,0)" x2="0" y2="5" style="fill: none; stroke: #888; stroke-width: 1; opacity: 1;"></line><line transform="translate(200,0)" x2="0" y2="5" style="fill: none; stroke: #888; stroke-width: 1; opacity: 1;"></line><line transform="translate(231,0)" x2="0" y2="5" style="fill: none; stroke: #888; stroke-width: 1; opacity: 1;"></line><line transform="translate(262,0)" x2="0" y2="5" style="fill: none; stroke: #888; stroke-width: 1; opacity: 1;"></line><line transform="translate(292,0)" x2="0" y2="5" style="fill: none; stroke: #888; stroke-width: 1; opacity: 1;"></line><line transform="translate(323,0)" x2="0" y2="5" style="fill: none; stroke: #888; stroke-width: 1; opacity: 1;"></line><line transform="translate(354,0)" x2="0" y2="5" style="fill: none; stroke: #888; stroke-width: 1; opacity: 1;"></line><line transform="translate(369,0)" x2="0" y2="5" style="fill: none; stroke: #888; stroke-width: 1; opacity: 1;"></line><line transform="translate(400,0)" x2="0" y2="5" style="fill: none; stroke: #888; stroke-width: 1; opacity: 1;"></line><line transform="translate(431,0)" x2="0" y2="5" style="fill: none; stroke: #888; stroke-width: 1; opacity: 1;"></line><line transform="translate(462,0)" x2="0" y2="5" style="fill: none; stroke: #888; stroke-width: 1; opacity: 1;"></line><line transform="translate(492,0)" x2="0" y2="5" style="fill: none; stroke: #888; stroke-width: 1; opacity: 1;"></line><line transform="translate(523,0)" x2="0" y2="5" style="fill: none; stroke: #888; stroke-width: 1; opacity: 1;"></line><line transform="translate(554,0)" x2="0" y2="5" style="fill: none; stroke: #888; stroke-width: 1; opacity: 1;"></line><line transform="translate(585,0)" x2="0" y2="5" style="fill: none; stroke: #888; stroke-width: 1; opacity: 1;"></line></g><g class="mark-text role-axis-label" style="pointer-events: none;"><text text-anchor="middle" transform="translate(15.384615384615383,15)" style="font-family: sans-serif; font-size: 10px; fill: #000; opacity: 1;">09-Jul</text><text text-anchor="middle" transform="translate(46.15384615384615,15)" style="font-family: sans-serif; font-size: 10px; fill: #000; opacity: 0;">11-Jul</text><text text-anchor="middle" transform="translate(76.92307692307692,15)" style="font-family: sans-serif; font-size: 10px; fill: #000; opacity: 1;">13-Jul</text><text text-anchor="middle" transform="translate(107.6923076923077,15)" style="font-family: sans-serif; font-size: 10px; fill: #000; opacity: 0;">15-Jul</text><text text-anchor="middle" transform="translate(138.46153846153848,15)" style="font-family: sans-serif; font-size: 10px; fill: #000; opacity: 1;">17-Jul</text><text text-anchor="middle" transform="translate(169.23076923076923,15)" style="font-family: sans-serif; font-size: 10px; fill: #000; opacity: 0;">19-Jul</text><text text-anchor="middle" transform="translate(200,15)" style="font-family: sans-serif; font-size: 10px; fill: #000; opacity: 1;">21-Jul</text><text text-anchor="middle" transform="translate(230.76923076923077,15)" style="font-family: sans-serif; font-size: 10px; fill: #000; opacity: 0;">23-Jul</text><text text-anchor="middle" transform="translate(261.53846153846155,15)" style="font-family: sans-serif; font-size: 10px; fill: #000; opacity: 1;">25-Jul</text><text text-anchor="middle" transform="translate(292.3076923076923,15)" style="font-family: sans-serif; font-size: 10px; fill: #000; opacity: 0;">27-Jul</text><text text-anchor="middle" transform="translate(323.07692307692304,15)" style="font-family: sans-serif; font-size: 10px; fill: #000; opacity: 1;">29-Jul</text><text text-anchor="middle" transform="translate(353.84615384615387,15)" style="font-family: sans-serif; font-size: 10px; fill: #000; opacity: 0;">31-Jul</text><text text-anchor="middle" transform="translate(369.2307692307692,15)" style="font-family: sans-serif; font-size: 10px; fill: #000; opacity: 1;">01-Aug</text><text text-anchor="middle" transform="translate(400,15)" style="font-family: sans-serif; font-size: 10px; fill: #000; opacity: 0;">03-Aug</text><text text-anchor="middle" transform="translate(430.7692307692308,15)" style="font-family: sans-serif; font-size: 10px; fill: #000; opacity: 1;">05-Aug</text><text text-anchor="middle" transform="translate(461.53846153846155,15)" style="font-family: sans-serif; font-size: 10px; fill: #000; opacity: 0;">07-Aug</text><text text-anchor="middle" transform="translate(492.30769230769226,15)" style="font-family: sans-serif; font-size: 10px; fill: #000; opacity: 1;">09-Aug</text><text text-anchor="middle" transform="translate(523.0769230769231,15)" style="font-family: sans-serif; font-size: 10px; fill: #000; opacity: 0;">11-Aug</text><text text-anchor="middle" transform="translate(553.8461538461539,15)" style="font-family: sans-serif; font-size: 10px; fill: #000; opacity: 1;">13-Aug</text><text text-anchor="middle" transform="translate(584.6153846153846,15)" style="font-family: sans-serif; font-size: 10px; fill: #000; opacity: 0;">15-Aug</text></g><g class="mark-rule role-axis-domain" style="pointer-events: none;"><line transform="translate(0,0)" x2="600" y2="0" style="fill: none; stroke: #888; stroke-width: 1; opacity: 1;"></line></g><g class="mark-text role-axis-title" style="pointer-events: none;"><text text-anchor="middle" transform="translate(300,30)" style="font-family: sans-serif; font-size: 11px; font-weight: bold; fill: #000; opacity: 1;">Msgs. par date et jour</text></g></g></g></g><g class="mark-group role-axis"><g transform="translate(0.5,0.5)"><path class="background" d="M0,0h0v0h0Z" style="pointer-events: none; fill: none;"></path><g><g class="mark-rule role-axis-tick" style="pointer-events: none;"><line transform="translate(0,400)" x2="-5" y2="0" style="fill: none; stroke: #888; stroke-width: 1; opacity: 1;"></line><line transform="translate(0,367)" x2="-5" y2="0" style="fill: none; stroke: #888; stroke-width: 1; opacity: 1;"></line><line transform="translate(0,333)" x2="-5" y2="0" style="fill: none; stroke: #888; stroke-width: 1; opacity: 1;"></line><line transform="translate(0,300)" x2="-5" y2="0" style="fill: none; stroke: #888; stroke-width: 1; opacity: 1;"></line><line transform="translate(0,267)" x2="-5" y2="0" style="fill: none; stroke: #888; stroke-width: 1; opacity: 1;"></line><line transform="translate(0,233)" x2="-5" y2="0" style="fill: none; stroke: #888; stroke-width: 1; opacity: 1;"></line><line transform="translate(0,200)" x2="-5" y2="0" style="fill: none; stroke: #888; stroke-width: 1; opacity: 1;"></line><line transform="translate(0,167)" x2="-5" y2="0" style="fill: none; stroke: #888; stroke-width: 1; opacity: 1;"></line><line transform="translate(0,133)" x2="-5" y2="0" style="fill: none; stroke: #888; stroke-width: 1; opacity: 1;"></line><line transform="translate(0,100)" x2="-5" y2="0" style="fill: none; stroke: #888; stroke-width: 1; opacity: 1;"></line><line transform="translate(0,67)" x2="-5" y2="0" style="fill: none; stroke: #888; stroke-width: 1; opacity: 1;"></line><line transform="translate(0,33)" x2="-5" y2="0" style="fill: none; stroke: #888; stroke-width: 1; opacity: 1;"></line><line transform="translate(0,0)" x2="-5" y2="0" style="fill: none; stroke: #888; stroke-width: 1; opacity: 1;"></line></g><g class="mark-text role-axis-label" style="pointer-events: none;"><text text-anchor="end" transform="translate(-7,403)" style="font-family: sans-serif; font-size: 10px; fill: #000; opacity: 1;">0</text><text text-anchor="end" transform="translate(-7,369.6666666666667)" style="font-family: sans-serif; font-size: 10px; fill: #000; opacity: 1;">1</text><text text-anchor="end" transform="translate(-7,336.33333333333337)" style="font-family: sans-serif; font-size: 10px; fill: #000; opacity: 1;">2</text><text text-anchor="end" transform="translate(-7,303)" style="font-family: sans-serif; font-size: 10px; fill: #000; opacity: 1;">3</text><text text-anchor="end" transform="translate(-7,269.6666666666667)" style="font-family: sans-serif; font-size: 10px; fill: #000; opacity: 1;">4</text><text text-anchor="end" transform="translate(-7,236.33333333333331)" style="font-family: sans-serif; font-size: 10px; fill: #000; opacity: 1;">5</text><text text-anchor="end" transform="translate(-7,203)" style="font-family: sans-serif; font-size: 10px; fill: #000; opacity: 1;">6</text><text text-anchor="end" transform="translate(-7,169.66666666666666)" style="font-family: sans-serif; font-size: 10px; fill: #000; opacity: 1;">7</text><text text-anchor="end" transform="translate(-7,136.33333333333337)" style="font-family: sans-serif; font-size: 10px; fill: #000; opacity: 1;">8</text><text text-anchor="end" transform="translate(-7,103)" style="font-family: sans-serif; font-size: 10px; fill: #000; opacity: 1;">9</text><text text-anchor="end" transform="translate(-7,69.66666666666663)" style="font-family: sans-serif; font-size: 10px; fill: #000; opacity: 1;">10</text><text text-anchor="end" transform="translate(-7,36.33333333333337)" style="font-family: sans-serif; font-size: 10px; fill: #000; opacity: 1;">11</text><text text-anchor="end" transform="translate(-7,3)" style="font-family: sans-serif; font-size: 10px; fill: #000; opacity: 1;">12</text></g><g class="mark-rule role-axis-domain" style="pointer-events: none;"><line transform="translate(0,400)" x2="0" y2="-400" style="fill: none; stroke: #888; stroke-width: 1; opacity: 1;"></line></g><g class="mark-text role-axis-title" style="pointer-events: none;"><text text-anchor="middle" transform="translate(-22.123046875,200) rotate(-90) translate(0,-2)" style="font-family: sans-serif; font-size: 11px; font-weight: bold; fill: #000; opacity: 1;">Nb msgs.</text></g></g></g></g><g class="mark-rect role-mark marks"><path d="M1,166.66666666666666h14.384615384615383v233.33333333333334h-14.384615384615383Z" style="fill: #1f77b4;"></path><path d="M1,133.33333333333337h14.384615384615383v33.333333333333286h-14.384615384615383Z" style="fill: #ff9896;"></path><path d="M16.384615384615383,366.6666666666667h14.384615384615383v33.333333333333314h-14.384615384615383Z" style="fill: #1f77b4;"></path><path d="M31.769230769230766,66.66666666666663h14.384615384615387v333.33333333333337h-14.384615384615387Z" style="fill: #1f77b4;"></path><path d="M31.769230769230766,33.33333333333337h14.384615384615387v33.33333333333326h-14.384615384615387Z" style="fill: #d62728;"></path><path d="M47.15384615384615,300h14.38461538461538v100h-14.38461538461538Z" style="fill: #1f77b4;"></path><path d="M47.15384615384615,266.6666666666667h14.38461538461538v33.333333333333314h-14.38461538461538Z" style="fill: #ffbb78;"></path><path d="M62.53846153846153,166.66666666666666h14.384615384615387v233.33333333333334h-14.384615384615387Z" style="fill: #1f77b4;"></path><path d="M62.53846153846153,133.33333333333337h14.384615384615387v33.333333333333286h-14.384615384615387Z" style="fill: #d62728;"></path><path d="M77.92307692307692,266.6666666666667h14.384615384615387v133.33333333333331h-14.384615384615387Z" style="fill: #1f77b4;"></path><path d="M93.3076923076923,200h14.384615384615387v200h-14.384615384615387Z" style="fill: #1f77b4;"></path><path d="M93.3076923076923,166.66666666666666h14.384615384615387v33.33333333333334h-14.384615384615387Z" style="fill: #ff9896;"></path><path d="M108.6923076923077,366.6666666666667h14.384615384615373v33.333333333333314h-14.384615384615373Z" style="fill: #2ca02c;"></path><path d="M108.6923076923077,266.6666666666667h14.384615384615373v100h-14.384615384615373Z" style="fill: #1f77b4;"></path><path d="M124.07692307692307,200h14.384615384615415v200h-14.384615384615415Z" style="fill: #1f77b4;"></path><path d="M124.07692307692307,166.66666666666666h14.384615384615415v33.33333333333334h-14.384615384615415Z" style="fill: #aec7e8;"></path><path d="M139.46153846153848,333.33333333333337h14.384615384615358v66.66666666666663h-14.384615384615358Z" style="fill: #1f77b4;"></path><path d="M154.84615384615384,300h14.384615384615387v100h-14.384615384615387Z" style="fill: #1f77b4;"></path><path d="M154.84615384615384,266.6666666666667h14.384615384615387v33.333333333333314h-14.384615384615387Z" style="fill: #9467bd;"></path><path d="M170.23076923076923,366.6666666666667h14.384615384615387v33.333333333333314h-14.384615384615387Z" style="fill: #d62728;"></path><path d="M170.23076923076923,200h14.384615384615387v166.66666666666669h-14.384615384615387Z" style="fill: #1f77b4;"></path><path d="M185.6153846153846,300h14.384615384615387v100h-14.384615384615387Z" style="fill: #1f77b4;"></path><path d="M185.6153846153846,266.6666666666667h14.384615384615387v33.333333333333314h-14.384615384615387Z" style="fill: #9467bd;"></path><path d="M201,333.33333333333337h14.384615384615387v66.66666666666663h-14.384615384615387Z" style="fill: #1f77b4;"></path><path d="M201,300h14.384615384615387v33.33333333333337h-14.384615384615387Z" style="fill: #d62728;"></path><path d="M201,266.6666666666667h14.384615384615387v33.333333333333314h-14.384615384615387Z" style="fill: #c5b0d5;"></path><path d="M216.3846153846154,266.6666666666667h14.384615384615387v133.33333333333331h-14.384615384615387Z" style="fill: #1f77b4;"></path><path d="M231.76923076923077,333.33333333333337h14.384615384615358v66.66666666666663h-14.384615384615358Z" style="fill: #1f77b4;"></path><path d="M247.15384615384613,200h14.384615384615415v200h-14.384615384615415Z" style="fill: #1f77b4;"></path><path d="M247.15384615384613,166.66666666666666h14.384615384615415v33.33333333333334h-14.384615384615415Z" style="fill: #98df8a;"></path><path d="M247.15384615384613,133.33333333333337h14.384615384615415v33.333333333333286h-14.384615384615415Z" style="fill: #ff7f0e;"></path><path d="M247.15384615384613,100h14.384615384615415v33.33333333333337h-14.384615384615415Z" style="fill: #ffbb78;"></path><path d="M262.53846153846155,133.33333333333337h14.384615384615415v266.66666666666663h-14.384615384615415Z" style="fill: #1f77b4;"></path><path d="M262.53846153846155,100h14.384615384615415v33.33333333333337h-14.384615384615415Z" style="fill: #ffbb78;"></path><path d="M277.92307692307696,300h14.384615384615358v100h-14.384615384615358Z" style="fill: #1f77b4;"></path><path d="M293.3076923076923,333.33333333333337h14.384615384615358v66.66666666666663h-14.384615384615358Z" style="fill: #1f77b4;"></path><path d="M308.6923076923077,100h14.384615384615358v300h-14.384615384615358Z" style="fill: #1f77b4;"></path><path d="M308.6923076923077,66.66666666666663h14.384615384615358v33.33333333333337h-14.384615384615358Z" style="fill: #ff9896;"></path><path d="M324.07692307692304,300h14.384615384615415v100h-14.384615384615415Z" style="fill: #1f77b4;"></path><path d="M339.46153846153845,0h14.384615384615415v400h-14.384615384615415Z" style="fill: #1f77b4;"></path><path d="M354.84615384615387,133.33333333333337h14.384615384615358v266.66666666666663h-14.384615384615358Z" style="fill: #1f77b4;"></path><path d="M354.84615384615387,100h14.384615384615358v33.33333333333337h-14.384615384615358Z" style="fill: #9467bd;"></path><path d="M370.2307692307692,333.33333333333337h14.384615384615415v66.66666666666663h-14.384615384615415Z" style="fill: #1f77b4;"></path><path d="M385.61538461538464,300h14.384615384615358v100h-14.384615384615358Z" style="fill: #1f77b4;"></path><path d="M385.61538461538464,266.6666666666667h14.384615384615358v33.333333333333314h-14.384615384615358Z" style="fill: #d62728;"></path><path d="M401,133.33333333333337h14.384615384615358v266.66666666666663h-14.384615384615358Z" style="fill: #1f77b4;"></path><path d="M416.38461538461536,233.33333333333331h14.384615384615415v166.66666666666669h-14.384615384615415Z" style="fill: #1f77b4;"></path><path d="M431.7692307692308,333.33333333333337h14.384615384615415v66.66666666666663h-14.384615384615415Z" style="fill: #1f77b4;"></path><path d="M447.1538461538462,366.6666666666667h14.384615384615358v33.333333333333314h-14.384615384615358Z" style="fill: #d62728;"></path><path d="M447.1538461538462,300h14.384615384615358v66.66666666666669h-14.384615384615358Z" style="fill: #1f77b4;"></path><path d="M447.1538461538462,266.6666666666667h14.384615384615358v33.333333333333314h-14.384615384615358Z" style="fill: #9467bd;"></path><path d="M462.53846153846155,200h14.384615384615358v200h-14.384615384615358Z" style="fill: #1f77b4;"></path><path d="M462.53846153846155,166.66666666666666h14.384615384615358v33.33333333333334h-14.384615384615358Z" style="fill: #c5b0d5;"></path><path d="M477.9230769230769,366.6666666666667h14.384615384615358v33.333333333333314h-14.384615384615358Z" style="fill: #1f77b4;"></path><path d="M477.9230769230769,333.33333333333337h14.384615384615358v33.333333333333314h-14.384615384615358Z" style="fill: #ffbb78;"></path><path d="M493.30769230769226,200h14.384615384615415v200h-14.384615384615415Z" style="fill: #1f77b4;"></path><path d="M493.30769230769226,166.66666666666666h14.384615384615415v33.33333333333334h-14.384615384615415Z" style="fill: #c5b0d5;"></path><path d="M508.6923076923077,266.6666666666667h14.384615384615415v133.33333333333331h-14.384615384615415Z" style="fill: #1f77b4;"></path><path d="M508.6923076923077,233.33333333333331h14.384615384615415v33.33333333333337h-14.384615384615415Z" style="fill: #d62728;"></path><path d="M524.0769230769231,133.33333333333337h14.384615384615358v266.66666666666663h-14.384615384615358Z" style="fill: #1f77b4;"></path><path d="M524.0769230769231,100h14.384615384615358v33.33333333333337h-14.384615384615358Z" style="fill: #aec7e8;"></path><path d="M539.4615384615385,233.33333333333331h14.384615384615472v166.66666666666669h-14.384615384615472Z" style="fill: #1f77b4;"></path><path d="M554.8461538461539,366.6666666666667h14.384615384615245v33.333333333333314h-14.384615384615245Z" style="fill: #1f77b4;"></path><path d="M570.2307692307692,166.66666666666666h14.384615384615472v233.33333333333334h-14.384615384615472Z" style="fill: #1f77b4;"></path><path d="M585.6153846153846,333.33333333333337h14.384615384615358v66.66666666666663h-14.384615384615358Z" style="fill: #1f77b4;"></path></g><g class="mark-group role-legend"><g transform="translate(618,0)"><path class="background" d="M0,0h46v144h-46Z" style="pointer-events: none; fill: none;"></path><g><g class="mark-group role-legend-entry"><g transform="translate(0,16)"><path class="background" d="M0,0h0v0h0Z" style="pointer-events: none; fill: none;"></path><g><g class="mark-group role-scope"><g transform="translate(0,0)"><path class="background" d="M0,0h38.24609375v11h-38.24609375Z" style="pointer-events: none; fill: none; opacity: 1;"></path><g><g class="mark-symbol role-legend-symbol" style="pointer-events: none;"><path transform="translate(6,6)" d="M-5,-5h10v10h-10Z" style="fill: #1f77b4; stroke-width: 1.5; opacity: 1;"></path></g><g class="mark-text role-legend-label" style="pointer-events: none;"><text text-anchor="start" transform="translate(16,9)" style="font-family: sans-serif; font-size: 10px; fill: #000; opacity: 1;">null</text></g></g></g><g transform="translate(0,13)"><path class="background" d="M0,0h38.24609375v11h-38.24609375Z" style="pointer-events: none; fill: none; opacity: 1;"></path><g><g class="mark-symbol role-legend-symbol" style="pointer-events: none;"><path transform="translate(6,6)" d="M-5,-5h10v10h-10Z" style="fill: #aec7e8; stroke-width: 1.5; opacity: 1;"></path></g><g class="mark-text role-legend-label" style="pointer-events: none;"><text text-anchor="start" transform="translate(16,9)" style="font-family: sans-serif; font-size: 10px; fill: #000; opacity: 1;">gp0</text></g></g></g><g transform="translate(0,26)"><path class="background" d="M0,0h38.24609375v11h-38.24609375Z" style="pointer-events: none; fill: none; opacity: 1;"></path><g><g class="mark-symbol role-legend-symbol" style="pointer-events: none;"><path transform="translate(6,6)" d="M-5,-5h10v10h-10Z" style="fill: #ff7f0e; stroke-width: 1.5; opacity: 1;"></path></g><g class="mark-text role-legend-label" style="pointer-events: none;"><text text-anchor="start" transform="translate(16,9)" style="font-family: sans-serif; font-size: 10px; fill: #000; opacity: 1;">gp15</text></g></g></g><g transform="translate(0,39)"><path class="background" d="M0,0h38.24609375v11h-38.24609375Z" style="pointer-events: none; fill: none; opacity: 1;"></path><g><g class="mark-symbol role-legend-symbol" style="pointer-events: none;"><path transform="translate(6,6)" d="M-5,-5h10v10h-10Z" style="fill: #ffbb78; stroke-width: 1.5; opacity: 1;"></path></g><g class="mark-text role-legend-label" style="pointer-events: none;"><text text-anchor="start" transform="translate(16,9)" style="font-family: sans-serif; font-size: 10px; fill: #000; opacity: 1;">gp16</text></g></g></g><g transform="translate(0,52)"><path class="background" d="M0,0h38.24609375v11h-38.24609375Z" style="pointer-events: none; fill: none; opacity: 1;"></path><g><g class="mark-symbol role-legend-symbol" style="pointer-events: none;"><path transform="translate(6,6)" d="M-5,-5h10v10h-10Z" style="fill: #2ca02c; stroke-width: 1.5; opacity: 1;"></path></g><g class="mark-text role-legend-label" style="pointer-events: none;"><text text-anchor="start" transform="translate(16,9)" style="font-family: sans-serif; font-size: 10px; fill: #000; opacity: 1;">gp17</text></g></g></g><g transform="translate(0,65)"><path class="background" d="M0,0h38.24609375v11h-38.24609375Z" style="pointer-events: none; fill: none; opacity: 1;"></path><g><g class="mark-symbol role-legend-symbol" style="pointer-events: none;"><path transform="translate(6,6)" d="M-5,-5h10v10h-10Z" style="fill: #98df8a; stroke-width: 1.5; opacity: 1;"></path></g><g class="mark-text role-legend-label" style="pointer-events: none;"><text text-anchor="start" transform="translate(16,9)" style="font-family: sans-serif; font-size: 10px; fill: #000; opacity: 1;">gp20</text></g></g></g><g transform="translate(0,78)"><path class="background" d="M0,0h38.24609375v11h-38.24609375Z" style="pointer-events: none; fill: none; opacity: 1;"></path><g><g class="mark-symbol role-legend-symbol" style="pointer-events: none;"><path transform="translate(6,6)" d="M-5,-5h10v10h-10Z" style="fill: #d62728; stroke-width: 1.5; opacity: 1;"></path></g><g class="mark-text role-legend-label" style="pointer-events: none;"><text text-anchor="start" transform="translate(16,9)" style="font-family: sans-serif; font-size: 10px; fill: #000; opacity: 1;">gp29</text></g></g></g><g transform="translate(0,91)"><path class="background" d="M0,0h38.24609375v11h-38.24609375Z" style="pointer-events: none; fill: none; opacity: 1;"></path><g><g class="mark-symbol role-legend-symbol" style="pointer-events: none;"><path transform="translate(6,6)" d="M-5,-5h10v10h-10Z" style="fill: #ff9896; stroke-width: 1.5; opacity: 1;"></path></g><g class="mark-text role-legend-label" style="pointer-events: none;"><text text-anchor="start" transform="translate(16,9)" style="font-family: sans-serif; font-size: 10px; fill: #000; opacity: 1;">gp36</text></g></g></g><g transform="translate(0,104)"><path class="background" d="M0,0h38.24609375v11h-38.24609375Z" style="pointer-events: none; fill: none; opacity: 1;"></path><g><g class="mark-symbol role-legend-symbol" style="pointer-events: none;"><path transform="translate(6,6)" d="M-5,-5h10v10h-10Z" style="fill: #9467bd; stroke-width: 1.5; opacity: 1;"></path></g><g class="mark-text role-legend-label" style="pointer-events: none;"><text text-anchor="start" transform="translate(16,9)" style="font-family: sans-serif; font-size: 10px; fill: #000; opacity: 1;">gp38</text></g></g></g><g transform="translate(0,117)"><path class="background" d="M0,0h38.24609375v11h-38.24609375Z" style="pointer-events: none; fill: none; opacity: 1;"></path><g><g class="mark-symbol role-legend-symbol" style="pointer-events: none;"><path transform="translate(6,6)" d="M-5,-5h10v10h-10Z" style="fill: #c5b0d5; stroke-width: 1.5; opacity: 1;"></path></g><g class="mark-text role-legend-label" style="pointer-events: none;"><text text-anchor="start" transform="translate(16,9)" style="font-family: sans-serif; font-size: 10px; fill: #000; opacity: 1;">gp9</text></g></g></g></g></g></g></g><g class="mark-text role-legend-title" style="pointer-events: none;"><text text-anchor="start" transform="translate(0,9)" style="font-family: sans-serif; font-size: 11px; font-weight: bold; fill: #000; opacity: 1;">Groupes</text></g></g></g></g></g></g></g></g></svg>